<svg width="221" height="59" viewBox="0 0 221 59" fill="none" xmlns="http://www.w3.org/2000/svg">
<path d="M81.04 39.72H86.64C87.5467 39.72 88.4267 39.5733 89.28 39.28C90.1333 38.9867 90.8933 38.5067 91.56 37.84C92.2267 37.1467 92.76 36.2533 93.16 35.16C93.56 34.0667 93.76 32.7333 93.76 31.16C93.76 29.72 93.6133 28.4267 93.32 27.28C93.0533 26.1067 92.6 25.1067 91.96 24.28C91.32 23.4533 90.4667 22.8267 89.4 22.4C88.36 21.9467 87.0667 21.72 85.52 21.72H81.04V39.72ZM74.76 16.44H87.08C88.92 16.44 90.6267 16.7333 92.2 17.32C93.8 17.9067 95.1733 18.7867 96.32 19.96C97.4933 21.1333 98.4 22.6 99.04 24.36C99.7067 26.12 100.04 28.1867 100.04 30.56C100.04 32.64 99.7733 34.56 99.24 36.32C98.7067 38.08 97.8933 39.6 96.8 40.88C95.7333 42.16 94.3867 43.1733 92.76 43.92C91.16 44.64 89.2667 45 87.08 45H74.76V16.44ZM102.608 30.68C102.688 29.3467 103.022 28.24 103.608 27.36C104.195 26.48 104.942 25.7733 105.848 25.24C106.755 24.7067 107.768 24.3333 108.888 24.12C110.035 23.88 111.182 23.76 112.328 23.76C113.368 23.76 114.422 23.84 115.488 24C116.555 24.1333 117.528 24.4133 118.408 24.84C119.288 25.2667 120.008 25.8667 120.568 26.64C121.128 27.3867 121.408 28.3867 121.408 29.64V40.4C121.408 41.3333 121.462 42.2267 121.568 43.08C121.675 43.9333 121.862 44.5733 122.128 45H116.368C116.262 44.68 116.168 44.36 116.088 44.04C116.035 43.6933 115.995 43.3467 115.968 43C115.062 43.9333 113.995 44.5867 112.768 44.96C111.542 45.3333 110.288 45.52 109.008 45.52C108.022 45.52 107.102 45.4 106.248 45.16C105.395 44.92 104.648 44.5467 104.008 44.04C103.368 43.5333 102.862 42.8933 102.488 42.12C102.142 41.3467 101.968 40.4267 101.968 39.36C101.968 38.1867 102.168 37.2267 102.568 36.48C102.995 35.7067 103.528 35.0933 104.168 34.64C104.835 34.1867 105.582 33.8533 106.408 33.64C107.262 33.4 108.115 33.2133 108.968 33.08C109.822 32.9467 110.662 32.84 111.488 32.76C112.315 32.68 113.048 32.56 113.688 32.4C114.328 32.24 114.835 32.0133 115.208 31.72C115.582 31.4 115.755 30.9467 115.728 30.36C115.728 29.7467 115.622 29.2667 115.408 28.92C115.222 28.5467 114.955 28.2667 114.608 28.08C114.288 27.8667 113.902 27.7333 113.448 27.68C113.022 27.6 112.555 27.56 112.048 27.56C110.928 27.56 110.048 27.8 109.408 28.28C108.768 28.76 108.395 29.56 108.288 30.68H102.608ZM115.728 34.88C115.488 35.0933 115.182 35.2667 114.808 35.4C114.462 35.5067 114.075 35.6 113.648 35.68C113.248 35.76 112.822 35.8267 112.368 35.88C111.915 35.9333 111.462 36 111.008 36.08C110.582 36.16 110.155 36.2667 109.728 36.4C109.328 36.5333 108.968 36.72 108.648 36.96C108.355 37.1733 108.115 37.4533 107.928 37.8C107.742 38.1467 107.648 38.5867 107.648 39.12C107.648 39.6267 107.742 40.0533 107.928 40.4C108.115 40.7467 108.368 41.0267 108.688 41.24C109.008 41.4267 109.382 41.56 109.808 41.64C110.235 41.72 110.675 41.76 111.128 41.76C112.248 41.76 113.115 41.5733 113.728 41.2C114.342 40.8267 114.795 40.3867 115.088 39.88C115.382 39.3467 115.555 38.8133 115.608 38.28C115.688 37.7467 115.728 37.32 115.728 37V34.88ZM132.057 24.32H136.217V28.12H132.057V38.36C132.057 39.32 132.217 39.96 132.537 40.28C132.857 40.6 133.497 40.76 134.457 40.76C134.777 40.76 135.084 40.7467 135.377 40.72C135.671 40.6933 135.951 40.6533 136.217 40.6V45C135.737 45.08 135.204 45.1333 134.617 45.16C134.031 45.1867 133.457 45.2 132.897 45.2C132.017 45.2 131.177 45.1333 130.377 45C129.604 44.8933 128.911 44.6667 128.297 44.32C127.711 43.9733 127.244 43.48 126.897 42.84C126.551 42.2 126.377 41.36 126.377 40.32V28.12H122.937V24.32H126.377V18.12H132.057V24.32ZM137.72 30.68C137.8 29.3467 138.133 28.24 138.72 27.36C139.306 26.48 140.053 25.7733 140.96 25.24C141.866 24.7067 142.88 24.3333 144 24.12C145.146 23.88 146.293 23.76 147.44 23.76C148.48 23.76 149.533 23.84 150.6 24C151.666 24.1333 152.64 24.4133 153.52 24.84C154.4 25.2667 155.12 25.8667 155.68 26.64C156.24 27.3867 156.52 28.3867 156.52 29.64V40.4C156.52 41.3333 156.573 42.2267 156.68 43.08C156.786 43.9333 156.973 44.5733 157.24 45H151.48C151.373 44.68 151.28 44.36 151.2 44.04C151.146 43.6933 151.106 43.3467 151.08 43C150.173 43.9333 149.106 44.5867 147.88 44.96C146.653 45.3333 145.4 45.52 144.12 45.52C143.133 45.52 142.213 45.4 141.36 45.16C140.506 44.92 139.76 44.5467 139.12 44.04C138.48 43.5333 137.973 42.8933 137.6 42.12C137.253 41.3467 137.08 40.4267 137.08 39.36C137.08 38.1867 137.28 37.2267 137.68 36.48C138.106 35.7067 138.64 35.0933 139.28 34.64C139.946 34.1867 140.693 33.8533 141.52 33.64C142.373 33.4 143.226 33.2133 144.08 33.08C144.933 32.9467 145.773 32.84 146.6 32.76C147.426 32.68 148.16 32.56 148.8 32.4C149.44 32.24 149.946 32.0133 150.32 31.72C150.693 31.4 150.866 30.9467 150.84 30.36C150.84 29.7467 150.733 29.2667 150.52 28.92C150.333 28.5467 150.066 28.2667 149.72 28.08C149.4 27.8667 149.013 27.7333 148.56 27.68C148.133 27.6 147.666 27.56 147.16 27.56C146.04 27.56 145.16 27.8 144.52 28.28C143.88 28.76 143.506 29.56 143.4 30.68H137.72ZM150.84 34.88C150.6 35.0933 150.293 35.2667 149.92 35.4C149.573 35.5067 149.186 35.6 148.76 35.68C148.36 35.76 147.933 35.8267 147.48 35.88C147.026 35.9333 146.573 36 146.12 36.08C145.693 36.16 145.266 36.2667 144.84 36.4C144.44 36.5333 144.08 36.72 143.76 36.96C143.466 37.1733 143.226 37.4533 143.04 37.8C142.853 38.1467 142.76 38.5867 142.76 39.12C142.76 39.6267 142.853 40.0533 143.04 40.4C143.226 40.7467 143.48 41.0267 143.8 41.24C144.12 41.4267 144.493 41.56 144.92 41.64C145.346 41.72 145.786 41.76 146.24 41.76C147.36 41.76 148.226 41.5733 148.84 41.2C149.453 40.8267 149.906 40.3867 150.2 39.88C150.493 39.3467 150.666 38.8133 150.72 38.28C150.8 37.7467 150.84 37.32 150.84 37V34.88ZM181.208 41.76C180.088 43.2 178.848 44.2133 177.488 44.8C176.128 45.36 174.755 45.64 173.368 45.64C171.182 45.64 169.208 45.2667 167.448 44.52C165.715 43.7467 164.248 42.6933 163.048 41.36C161.848 40.0267 160.928 38.4667 160.288 36.68C159.648 34.8667 159.328 32.92 159.328 30.84C159.328 28.7067 159.648 26.7333 160.288 24.92C160.928 23.08 161.848 21.48 163.048 20.12C164.248 18.76 165.715 17.6933 167.448 16.92C169.208 16.1467 171.182 15.76 173.368 15.76C174.835 15.76 176.248 15.9867 177.608 16.44C178.995 16.8667 180.235 17.5067 181.328 18.36C182.448 19.2133 183.368 20.2667 184.088 21.52C184.808 22.7733 185.248 24.2133 185.408 25.84H179.408C179.035 24.24 178.315 23.04 177.248 22.24C176.182 21.44 174.888 21.04 173.368 21.04C171.955 21.04 170.755 21.32 169.768 21.88C168.782 22.4133 167.982 23.1467 167.368 24.08C166.755 24.9867 166.302 26.0267 166.008 27.2C165.742 28.3733 165.608 29.5867 165.608 30.84C165.608 32.04 165.742 33.2133 166.008 34.36C166.302 35.48 166.755 36.4933 167.368 37.4C167.982 38.3067 168.782 39.04 169.768 39.6C170.755 40.1333 171.955 40.4 173.368 40.4C175.448 40.4 177.048 39.88 178.168 38.84C179.315 37.7733 179.982 36.24 180.168 34.24H173.848V29.56H185.848V45H181.848L181.208 41.76ZM210.6 41.76C209.48 43.2 208.24 44.2133 206.88 44.8C205.52 45.36 204.147 45.64 202.76 45.64C200.573 45.64 198.6 45.2667 196.84 44.52C195.107 43.7467 193.64 42.6933 192.44 41.36C191.24 40.0267 190.32 38.4667 189.68 36.68C189.04 34.8667 188.72 32.92 188.72 30.84C188.72 28.7067 189.04 26.7333 189.68 24.92C190.32 23.08 191.24 21.48 192.44 20.12C193.64 18.76 195.107 17.6933 196.84 16.92C198.6 16.1467 200.573 15.76 202.76 15.76C204.227 15.76 205.64 15.9867 207 16.44C208.387 16.8667 209.627 17.5067 210.72 18.36C211.84 19.2133 212.76 20.2667 213.48 21.52C214.2 22.7733 214.64 24.2133 214.8 25.84H208.8C208.427 24.24 207.707 23.04 206.64 22.24C205.573 21.44 204.28 21.04 202.76 21.04C201.347 21.04 200.147 21.32 199.16 21.88C198.173 22.4133 197.373 23.1467 196.76 24.08C196.147 24.9867 195.693 26.0267 195.4 27.2C195.133 28.3733 195 29.5867 195 30.84C195 32.04 195.133 33.2133 195.4 34.36C195.693 35.48 196.147 36.4933 196.76 37.4C197.373 38.3067 198.173 39.04 199.16 39.6C200.147 40.1333 201.347 40.4 202.76 40.4C204.84 40.4 206.44 39.88 207.56 38.84C208.707 37.7733 209.373 36.24 209.56 34.24H203.24V29.56H215.24V45H211.24L210.6 41.76Z" fill="#253858"/>
<path d="M15.8154 59L17.5372 54.4078L14.7497 54.6668L13.5242 57.7413C13.2578 58.3379 12.9914 58.9672 12.2121 58.9672L5.82131 59L7.15341 55.3125H0.086587C0.11989 54.8602 13.6341 21.2859 14.157 20.2829H25.6597C26.7087 20.3812 27.3015 21.1777 26.9718 22.2102L25.3666 26.2747L18.4197 44.5647C28.0508 44.5647 37.1624 39.0056 41.2986 30.4047C44.4158 24.6063 45.2683 14.7533 36.0834 14.7533H0L4.75229 6.95217C4.96451 6.53499 5.29296 6.18586 5.69927 5.94557C6.10558 5.70528 6.57297 5.58374 7.04684 5.59517H26.2558L28.4205 0H34.7147C35.1077 0.0655556 35.3708 0.386778 35.3075 0.806333L35.141 1.32422L33.7289 5.015L33.5291 5.56239H36.1534L36.3532 5.14283L38.1915 0.452333C38.358 4.88427e-08 38.358 0 38.7809 0H44.3525C45.1051 0 45.4015 0.419556 45.1051 1.16033L43.5965 5.17561L43.3634 5.723L43.8563 5.82133C46.4139 6.14583 48.9383 6.69322 51.2961 7.75522C53.1011 8.56483 54.7396 9.59733 56.0817 11.0822C57.92 13.0816 58.8358 15.4351 58.969 18.113C59.1322 20.6959 58.6393 23.2099 57.7568 25.6289C55.8069 31.3293 52.6438 36.5545 48.4787 40.9558C42.361 47.1771 34.2485 50.8744 25.7962 52.923C25.4033 53.0213 25.2068 53.1819 25.0736 53.5687L23.4218 57.9347C23.0921 58.7411 22.7657 59 21.9465 59H15.8154Z" fill="#0065FF"/>
</svg>
